<svg xmlns="http://www.w3.org/2000/svg" fill="none" viewBox="0 0 24 24" id="Cucumber--Streamline-Svg-Logos" height="24" width="24">
  <desc>
    Cucumber Streamline Icon: https://streamlinehq.com
  </desc>
  <path fill="#23d96c" d="M17.006 2.099765c-0.17865 -0.1072475 -0.36135 -0.20756 -0.5481 -0.3009375 -0.1908 -0.093375 -0.3867 -0.184215 -0.585625 -0.262875 -0.062925 -0.0263875 -0.12535 -0.0507475 -0.188775 -0.075615 -0.174075 -0.06445 -0.34965 -0.136005 -0.5288 -0.188275C11.6643 0.1065875 7.81535 0.9819925 5.172375 3.54245 2.5294 6.102875 1.5323925 9.92215 2.5866 13.44775c1.0542 3.525575 3.98415 6.170625 7.59885 6.859925v2.8216c5.92535 -0.8896 11.1727 -5.571625 11.563975 -11.71925 0.232925 -3.69905 -1.6204 -7.4752 -4.743425 -9.31026Z" stroke-width="0.25"></path>
  <path fill="#173647" d="M9.649525 23.75V20.7381C5.94625 19.84355 3.029625 16.993825 2.049465 13.312275 1.069295 9.630725 2.18281 5.708 4.95105 3.0905 7.719275 0.4729925 11.69815 -0.4193825 15.3191 0.76516c0.13905 0.0405975 0.282675 0.0948975 0.422225 0.1476775l0.12585 0.047195c0.08375 0.0324775 0.147675 0.057345 0.211625 0.08475 0.1766 0.069525 0.375025 0.15884 0.61305 0.27556 0.19925 0.099805 0.3943 0.206885 0.585125 0.3212375C20.5213 3.547675 22.531425 7.48675 22.2792 11.444075 21.892 17.53385 16.838 22.670575 10.26255 23.657625L9.649525 23.75Zm2.4359 -22.4378925h-0.013175C7.254975 1.288455 3.213325 4.93965 2.7492 9.734575 2.2850975 14.5295 5.551475 18.888025 10.283875 19.7886l0.43135 0.083725v2.62875c5.781225 -1.128625 10.1542 -5.720325 10.497775 -11.125 0.22735 -3.5691 -1.5732 -7.113875 -4.481075 -8.821525l-0.00405 -0.00255c-0.167975 -0.101495 -0.340525 -0.19538 -0.51255 -0.2816525 -0.207575 -0.101495 -0.381625 -0.180155 -0.543525 -0.2440975 -0.065475 -0.0279125 -0.119775 -0.0507475 -0.174575 -0.0700325l-0.137025 -0.0507475c-0.12535 -0.0477025 -0.2441 -0.09287 -0.3593 -0.1263625 -0.940625 -0.30895 -1.924375 -0.46654 -2.91445 -0.467h-0.001025Z" stroke-width="0.25"></path>
  <path fill="#173647" d="M10.095525 5.6193c0.3025 -0.03765 0.603825 0.0781 0.80335 0.30855 0.1522 0.16645 0.276925 0.356075 0.36945 0.561775 0.327325 0.721625 0.521175 1.7564 0.116725 2.33695 -0.86105 -0.220425 -1.592425 -0.78755 -2.0203 -1.5666 -0.106975 -0.211175 -0.16705 -0.442975 -0.176075 -0.679525 0.01435 -0.504175 0.40435 -0.91755 0.90685 -0.96115Zm-2.884 4.072525c0.1941 0.1434 0.401025 0.2686 0.6181 0.374025 0.7959 0.343375 1.7028 0.317725 2.478025 -0.07005 -0.30325 -0.79075 -0.9165 -1.42325 -1.697525 -1.7508 -0.230325 -0.103425 -0.479325 -0.15885 -0.731775 -0.1629 -0.053875 -0.004575 -0.108025 -0.004575 -0.1619 0 -0.377925 0.01535 -0.705525 0.266325 -0.818725 0.627225 -0.113225 0.3609 0.01235 0.75405 0.3138 0.9825Zm3.095625 1.742175c-0.3943 -0.262875 -1.2073 -0.1568 -1.680775 -0.148175 -0.29075 0.004125 -0.5779 0.0648 -0.84545 0.178625 -0.22955 0.081175 -0.439925 0.20865 -0.618125 0.374525 -0.3036 0.26615 -0.39875 0.69885 -0.2348 1.0678 0.163925 0.368975 0.54885 0.588375 0.94985 0.541425 0.2531 0.0017 0.5033 -0.054 0.731775 -0.1629 0.72875 -0.314625 1.594 -1.17735 1.698025 -1.8513h-0.0005Zm1.324525 1.014975c-0.84485 0.31275 -1.526775 0.95475 -1.88985 1.779225 -0.102875 0.207525 -0.1585 0.43525 -0.1629 0.666825 -0.0093 0.401425 0.230225 0.766875 0.602 0.918525 0.371775 0.151625 0.798575 0.05795 1.072675 -0.23545 0.1377 -0.19435 0.25665 -0.4013 0.35525 -0.6181 0.31515 -0.676475 0.439475 -1.88785 0.02335 -2.511025h-0.000525Zm1.297625 -3.637125c0.826825 -0.242775 1.51025 -0.82775 1.8777 -1.6072 0.10245 -0.213375 0.157675 -0.446375 0.161875 -0.68305 0.01165 -0.52125 -0.390075 -0.958825 -0.910425 -0.991625 -0.30795 -0.033625 -0.6124 0.08835 -0.811975 0.3253 -0.13865 0.194175 -0.25845 0.40115 -0.357775 0.6181 -0.314625 0.727725 -0.427275 1.76605 0.041125 2.33595l-0.000525 0.002525Zm2.1355 6.14815c-0.004625 -0.2366 -0.060175 -0.4694 -0.1629 -0.682575 -0.335325 -0.78615 -0.992225 -1.39035 -1.8036 -1.65895 -0.403675 0.736925 -0.44595 1.61855 -0.1147 2.39075 0.08725 0.2074 0.207175 0.39945 0.35525 0.568875 0.574975 0.6242 1.778725 0.1624 1.72645 -0.6181h-0.0005Zm2.1314 -3.187c-0.19425 -0.13755 -0.401025 -0.256475 -0.6176 -0.355225 -0.2676 -0.113725 -0.554725 -0.1744 -0.84545 -0.17865 -0.5545 -0.04625 -1.1116 0.05075 -1.61785 0.281675 0.29925 0.780775 0.908425 1.402825 1.6828 1.718325 0.230425 0.103125 0.479375 0.158375 0.7318 0.1624 0.406775 0.04655 0.79485 -0.18325 0.949575 -0.5623 0.15475 -0.379075 0.038375 -0.8148 -0.284775 -1.066225h0.0015Z" stroke-width="0.25"></path>
</svg>